In 1902 London, unhappily married Philip Marshall meets young Mary Gray, who is unemployed and depressed. Their deepening friendship, though physically innocent, is discovered by Philip's wife who threatens him with exposure and scandal, driving him to kill her. Thereafter, fortune seems to smile on Philip Marshall; but does fate have a surprise in store? Written by Rod Crawford
 
http://www.imdb.com/title/tt0037330/

General 
Complete name : The Suspect.avi 
Format : AVI 
Format/Info : Audio Video Interleave 
File size : 1.15 GiB 
Duration : 1h 21mn 
Overall bit rate : 2 022 Kbps 
Writing application : VirtualDubMod 1.5.10.2 (build 2540/release) 
Writing library : VirtualDubMod build 2540/release 

Video 
ID : 0 
Format : MPEG-4 Visual 
Format profile : Advanced Simple@L5 
Format settings, BVOP : 1 
Format settings, QPel : No 
Format settings, GMC : No warppoints 
Format settings, Matrix : Default (MPEG) 
Codec ID : XVID 
Codec ID/Hint : XviD 
Duration : 1h 21mn 
Bit rate : 1 820 Kbps 
Width : 640 pixels 
Height : 480 pixels 
Display aspect ratio : 4:3 
Frame rate : 25.000 fps 
Color space : YUV 
Chroma subsampling : 4:2:0 
Bit depth : 8 bits 
Scan type : Progressive 
Compression mode : Lossy 
Bits/(Pixel*Frame) : 0.237 
Stream size : 1.03 GiB (90%) 
Writing library : XviD 1.2.1 (UTC 2008-12-04) 

Audio 
ID : 1 
Format : AC-3 
Format/Info : Audio Coding 3 
Mode extension : CM (complete main) 
Format settings, Endianness : Big 
Codec ID : 2000 
Duration : 1h 21mn 
Bit rate mode : Constant 
Bit rate : 192 Kbps 
Channel(s) : 2 channels 
Channel positions : Front: L R 
Sampling rate : 48.0 KHz 
Bit depth : 16 bits 
Compression mode : Lossy 
Stream size : 112 MiB (9%) 
Alignment : Split accross interleaves 
Interleave, duration : 40 ms (1.00 video frame) 
Interleave, preload duration : 500 ms 

My rip.